<?xml version="1.0" encoding="utf-8"?>
<!-- Generator: Adobe Illustrator 28.0.0, SVG Export Plug-In . SVG Version: 6.00 Build 0)  -->
<svg version="1.1" id="Layer_1" xmlns="http://www.w3.org/2000/svg" xmlns:xlink="http://www.w3.org/1999/xlink" x="0px" y="0px"
	 viewBox="0 0 174 26" style="enable-background:new 0 0 174 26;" xml:space="preserve">
<style type="text/css">
	.st0{display:none;fill:#11142D;}
	.st1{display:none;fill:#615DFF;}
	.st2{display:none;}
	.st3{display:inline;fill:#3DD9EB;}
	.st4{fill:#5D87FF;}
	.st5{fill:#615DFF;}
	.st6{fill:#11142D;}
</style>
<path class="st0" d="M46,23V5.1h3.1l6.7,9.1h-1.5l6.6-9.1H64V23h-3.3V8.8L62,9.2l-6.8,9h-0.4l-6.6-9l1.1-0.3V23H46z M73.6,23.3
	c-1.3,0-2.4-0.3-3.5-0.9c-1-0.6-1.9-1.4-2.5-2.4s-0.9-2.2-0.9-3.5S67,14,67.6,13s1.5-1.8,2.5-2.4s2.2-0.9,3.5-0.9s2.4,0.3,3.5,0.9
	S79,12,79.6,13s0.9,2.2,0.9,3.5S80.2,19,79.6,20s-1.5,1.8-2.5,2.4C76,23,74.8,23.3,73.6,23.3z M73.6,20.4c0.7,0,1.3-0.2,1.8-0.5
	s1-0.8,1.3-1.4s0.5-1.3,0.5-2c0-0.8-0.2-1.4-0.5-2s-0.7-1.1-1.3-1.4c-0.5-0.4-1.1-0.5-1.8-0.5c-0.7,0-1.4,0.2-1.9,0.5
	s-1,0.8-1.3,1.4c-0.3,0.6-0.5,1.2-0.5,2s0.2,1.4,0.5,2s0.8,1.1,1.3,1.4C72.2,20.2,72.8,20.4,73.6,20.4z M88.9,23.3
	c-1.3,0-2.4-0.3-3.4-0.9s-1.8-1.4-2.4-2.5c-0.6-1-0.9-2.2-0.9-3.5s0.3-2.4,0.9-3.5c0.6-1,1.4-1.8,2.4-2.4c1-0.6,2.1-0.9,3.4-0.9
	c1,0,1.9,0.2,2.6,0.6c0.8,0.4,1.4,0.9,1.8,1.6l-0.5,0.6V4.8H96V23h-3v-2.5l0.3,0.6c-0.4,0.7-1.1,1.2-1.9,1.6
	C90.7,23.1,89.9,23.3,88.9,23.3z M89.2,20.4c0.7,0,1.4-0.2,1.9-0.5s1-0.8,1.3-1.4s0.5-1.3,0.5-2c0-0.8-0.2-1.4-0.5-2
	s-0.7-1.1-1.3-1.4c-0.5-0.3-1.2-0.5-1.9-0.5c-0.7,0-1.3,0.2-1.9,0.5s-1,0.8-1.3,1.4c-0.3,0.6-0.5,1.2-0.5,2s0.2,1.4,0.5,2
	s0.8,1.1,1.3,1.4C87.9,20.2,88.5,20.4,89.2,20.4z M105.2,23.3c-1.3,0-2.5-0.3-3.5-0.9s-1.8-1.4-2.4-2.5c-0.6-1-0.8-2.2-0.8-3.5
	s0.3-2.5,0.8-3.5c0.6-1,1.4-1.8,2.3-2.4c1-0.6,2.1-0.9,3.3-0.9c1,0,1.9,0.2,2.7,0.5c0.8,0.3,1.4,0.8,2,1.4s1,1.3,1.2,2
	c0.3,0.8,0.4,1.6,0.4,2.4c0,0.2,0,0.5,0,0.7s-0.1,0.4-0.1,0.6H101V15h8.3l-1.5,1.1c0.1-0.7,0.1-1.4-0.1-2s-0.6-1-1.1-1.4
	c-0.5-0.3-1.1-0.5-1.8-0.5c-0.7,0-1.2,0.2-1.8,0.5c-0.5,0.3-0.9,0.8-1.2,1.4c-0.3,0.6-0.4,1.4-0.3,2.3c-0.1,0.8,0,1.5,0.3,2.1
	s0.7,1.1,1.2,1.4c0.6,0.3,1.2,0.5,1.9,0.5s1.3-0.2,1.8-0.5s0.9-0.7,1.2-1.2l2.5,1.2c-0.3,0.6-0.7,1.2-1.2,1.7s-1.2,0.9-1.9,1.1
	C106.9,23.2,106.1,23.3,105.2,23.3z M113.7,23V9.9h3v2.9l-0.2-0.4c0.3-1,0.8-1.7,1.4-2c0.7-0.4,1.4-0.6,2.4-0.6h0.8v2.8H120
	c-0.9,0-1.6,0.3-2.2,0.8c-0.5,0.5-0.8,1.3-0.8,2.3V23H113.7z M122.6,23V9.9h3v2.6l-0.2-0.5c0.3-0.8,0.8-1.4,1.5-1.8
	c0.7-0.4,1.5-0.6,2.4-0.6c1,0,1.8,0.2,2.5,0.6c0.8,0.4,1.3,1,1.8,1.8c0.4,0.7,0.6,1.6,0.6,2.6V23h-3.1v-7.7c0-0.6-0.1-1.1-0.3-1.5
	s-0.5-0.7-0.9-1c-0.4-0.2-0.8-0.4-1.4-0.4c-0.5,0-1,0.1-1.4,0.4c-0.4,0.2-0.7,0.5-0.9,1c-0.2,0.4-0.3,0.9-0.3,1.5V23H122.6z
	 M136.9,23V9.9h3.1V23H136.9z M136.9,8.5V5.1h3.1v3.4H136.9z M141.8,23v-2.5l7.6-8.8l0.5,1.1h-7.7V9.9h10.5v2.6l-7.4,8.8l-0.5-1.1h8
	V23H141.8z M160.7,23.3c-1.3,0-2.5-0.3-3.5-0.9s-1.8-1.4-2.4-2.5c-0.6-1-0.8-2.2-0.8-3.5s0.3-2.5,0.8-3.5c0.6-1,1.4-1.8,2.3-2.4
	c1-0.6,2.1-0.9,3.3-0.9c1,0,1.9,0.2,2.7,0.5s1.4,0.8,2,1.4c0.5,0.6,1,1.3,1.2,2c0.3,0.8,0.4,1.6,0.4,2.4c0,0.2,0,0.5,0,0.7
	s-0.1,0.4-0.1,0.6h-10.1V15h8.3l-1.5,1.1c0.1-0.7,0.1-1.4-0.1-2c-0.2-0.6-0.6-1-1.1-1.4c-0.5-0.3-1.1-0.5-1.8-0.5s-1.2,0.2-1.8,0.5
	c-0.5,0.3-0.9,0.8-1.2,1.4c-0.3,0.6-0.4,1.4-0.3,2.3c-0.1,0.8,0,1.5,0.3,2.1s0.7,1.1,1.2,1.4c0.6,0.3,1.2,0.5,1.9,0.5
	s1.3-0.2,1.8-0.5s0.9-0.7,1.2-1.2l2.5,1.2c-0.3,0.6-0.7,1.2-1.2,1.7s-1.2,0.9-1.9,1.1C162.4,23.2,161.6,23.3,160.7,23.3z"/>
<path class="st1" d="M20.1,26c2.8,0,5-2.3,4.5-5c-0.3-1.7-0.8-3.4-1.4-5c-1.3-3.2-3.1-6-5.4-8.4C15.4,5.2,12.7,3.3,9.6,2
	C8.1,1.3,6.6,0.8,5,0.5C2.3-0.1,0,2.2,0,5v16c0,2.8,2.2,5,5,5H20.1z"/>
<g class="st2">
	<path class="st3" d="M13.7,26c-2.8,0-5-2.3-4.5-5c0.3-1.7,0.8-3.4,1.4-5c1.3-3.2,3.1-6,5.4-8.4s5.1-4.3,8.2-5.6
		c1.5-0.6,3.1-1.1,4.7-1.5c2.7-0.6,5,1.7,5,4.5v16c0,2.8-2.2,5-5,5H13.7z"/>
</g>
<path class="st4" d="M32.5,14l-5.4,9.6c-0.5,1-1.5,1.8-2.9,1.9c-1.8,0.1-3.3-1.1-3.4-2.7c0-0.7,0.2-1.2,0.3-1.4c0,0,0-0.1,0.1-0.1
	l0,0l5.6-9.9l0,0c0.5-0.9,1.5-1.6,2.7-1.6c1.6-0.1,3.3,1.1,3.4,2.7C32.9,13,32.8,13.5,32.5,14L32.5,14L32.5,14z"/>
<path class="st5" d="M21,15.6c-0.5,1.1-1.6,1.9-2.9,1.9c-1.8,0-3.2-1.4-3.2-3.2c0-0.7,0.3-1.3,0.4-1.5c0,0,0-0.1,0.1-0.1l0,0
	l6.1-10.6l0,0c0.6-0.9,1.6-1.6,2.8-1.6c1.6,0,3.2,1.4,3.2,3.2c0,0.6-0.2,1.1-0.4,1.6v0.1L21,15.6L21,15.6z"/>
<circle class="st5" cx="34.9" cy="22.2" r="3.3"/>
<circle class="st5" cx="13.6" cy="22.2" r="3.3"/>
<g>
	<path class="st6" d="M52,19.7L47.6,3.3h3.2l3.5,14h-0.8l3.6-14h3.1l3.6,14H63l3.5-14h3.2l-4.4,16.4h-3.4L58.1,6.1h1l-3.6,13.6H52z"
		/>
	<path class="st6" d="M76.2,20C75,20,74,19.7,73,19.2s-1.7-1.3-2.3-2.2c-0.6-0.9-0.8-2-0.8-3.2s0.3-2.3,0.8-3.2
		C71.3,9.7,72,8.9,73,8.4s2-0.8,3.2-0.8s2.2,0.3,3.2,0.8s1.7,1.3,2.3,2.2c0.6,0.9,0.8,2,0.8,3.2s-0.3,2.3-0.9,3.2s-1.3,1.7-2.3,2.2
		S77.4,20,76.2,20z M76.2,17.4c0.6,0,1.2-0.2,1.7-0.5s0.9-0.7,1.2-1.3c0.3-0.6,0.4-1.2,0.4-1.9s-0.1-1.3-0.4-1.9
		c-0.3-0.5-0.7-1-1.2-1.3S76.8,10,76.2,10c-0.7,0-1.2,0.2-1.7,0.5s-0.9,0.7-1.2,1.3c-0.3,0.5-0.4,1.2-0.4,1.9s0.1,1.3,0.4,1.9
		c0.3,0.5,0.7,1,1.2,1.3S75.6,17.4,76.2,17.4z"/>
	<path class="st6" d="M84.7,19.7v-12h2.7v2.7L87.2,10c0.3-0.9,0.7-1.5,1.3-1.9c0.6-0.4,1.3-0.5,2.1-0.5h0.7v2.6h-1
		c-0.8,0-1.5,0.3-2,0.8s-0.7,1.2-0.7,2.1v6.7L84.7,19.7L84.7,19.7z"/>
	<path class="st6" d="M93,19.7V3.1h2.9V14l-1.1-0.3l5.6-5.9h3.6l-4.4,4.8l4.5,7.1h-3.3l-3.9-6.2l1.7-0.4L95,17l0.9-1.8v4.4L93,19.7
		L93,19.7z"/>
	<path class="st6" d="M111.8,20c-1,0-2-0.2-2.9-0.6s-1.7-0.9-2.3-1.6c-0.6-0.7-1.1-1.5-1.4-2.4l2.5-1.1c0.4,0.9,1,1.7,1.7,2.2
		s1.6,0.8,2.5,0.8c0.5,0,1-0.1,1.4-0.3c0.4-0.2,0.7-0.4,0.9-0.7c0.2-0.3,0.3-0.6,0.3-1.1s-0.1-0.9-0.4-1.2s-0.7-0.6-1.3-0.7l-3.1-1
		c-1.3-0.4-2.2-1-2.9-1.8c-0.6-0.8-1-1.7-1-2.8c0-0.9,0.2-1.8,0.7-2.5s1.1-1.3,1.9-1.7s1.8-0.6,2.8-0.6s1.9,0.2,2.7,0.5
		c0.8,0.3,1.5,0.8,2.1,1.4s1,1.3,1.3,2.1L115,8.3c-0.3-0.8-0.8-1.5-1.5-1.9c-0.6-0.4-1.4-0.7-2.2-0.7c-0.5,0-0.9,0.1-1.3,0.3
		c-0.4,0.2-0.7,0.4-0.9,0.7c-0.2,0.3-0.3,0.7-0.3,1.1c0,0.5,0.1,0.9,0.4,1.2s0.7,0.6,1.3,0.8l3,0.9c1.3,0.4,2.3,1,2.9,1.8
		c0.7,0.7,1,1.7,1,2.8c0,0.9-0.2,1.8-0.7,2.5c-0.5,0.7-1.2,1.3-2,1.7C113.9,19.8,112.9,20,111.8,20z"/>
	<path class="st6" d="M121.3,24.6c-0.3,0-0.6,0-0.9-0.1s-0.6-0.1-0.8-0.3v-2.4c0.2,0,0.4,0.1,0.7,0.1s0.5,0.1,0.8,0.1
		c0.7,0,1.1-0.2,1.4-0.5s0.6-0.7,0.8-1.2l0.8-1.8v2.4l-5.2-13.2h3.1l3.7,9.7h-1.1l3.6-9.7h3.1L126,20.9c-0.3,0.8-0.7,1.4-1.1,2
		c-0.4,0.5-1,1-1.5,1.2C122.8,24.4,122.1,24.6,121.3,24.6z"/>
	<path class="st6" d="M132.8,19.7v-12h2.7v2.4l-0.2-0.4c0.3-0.7,0.7-1.3,1.4-1.6c0.7-0.3,1.4-0.6,2.2-0.6c0.9,0,1.7,0.2,2.3,0.6
		c0.7,0.4,1.2,0.9,1.6,1.6c0.4,0.7,0.6,1.5,0.6,2.4v7.7h-2.9v-7c0-0.5-0.1-1-0.3-1.4s-0.5-0.7-0.8-0.9c-0.4-0.2-0.8-0.3-1.3-0.3
		s-0.9,0.1-1.3,0.3c-0.4,0.2-0.7,0.5-0.9,0.9s-0.3,0.8-0.3,1.4v7L132.8,19.7L132.8,19.7z"/>
	<path class="st6" d="M151.6,20c-1.2,0-2.3-0.3-3.2-0.8c-0.9-0.6-1.7-1.3-2.2-2.2c-0.5-0.9-0.8-2-0.8-3.2s0.3-2.3,0.8-3.2
		s1.3-1.7,2.2-2.2s2-0.8,3.2-0.8c0.8,0,1.6,0.2,2.4,0.5c0.7,0.3,1.4,0.7,1.9,1.2s0.9,1.1,1.2,1.9l-2.5,1.1c-0.2-0.6-0.6-1.1-1.1-1.5
		s-1.1-0.5-1.8-0.5c-0.6,0-1.2,0.2-1.7,0.5s-0.9,0.7-1.2,1.3c-0.3,0.5-0.4,1.2-0.4,1.9s0.1,1.3,0.4,1.9c0.3,0.5,0.7,1,1.2,1.3
		s1.1,0.5,1.7,0.5c0.7,0,1.3-0.2,1.8-0.5c0.5-0.4,0.9-0.9,1.1-1.5l2.5,1.1c-0.2,0.7-0.6,1.3-1.1,1.8s-1.2,1-1.9,1.3
		C153.3,19.8,152.5,20,151.6,20z"/>
</g>
</svg>
